<?xml version="1.0" encoding="UTF-8"?>
<!DOCTYPE svg PUBLIC "-//W3C//DTD SVG 1.1//EN" "http://www.w3.org/Graphics/SVG/1.1/DTD/svg11.dtd">
<svg xmlns="http://www.w3.org/2000/svg" version="1.1" width="248px" height="138px" style="shape-rendering:geometricPrecision; text-rendering:geometricPrecision; image-rendering:optimizeQuality; fill-rule:evenodd; clip-rule:evenodd" xmlns:xlink="http://www.w3.org/1999/xlink">
<g><path style="opacity:1" fill="#e3e1dc" d="M -0.5,-0.5 C 82.1667,-0.5 164.833,-0.5 247.5,-0.5C 247.5,45.5 247.5,91.5 247.5,137.5C 164.833,137.5 82.1667,137.5 -0.5,137.5C -0.5,91.5 -0.5,45.5 -0.5,-0.5 Z"/></g>
<g><path style="opacity:1" fill="#dedcd7" d="M 181.5,101.5 C 181.975,98.9179 181.308,96.9179 179.5,95.5C 175.981,94.1923 172.315,94.1923 168.5,95.5C 167.638,99.7593 165.305,101.093 161.5,99.5C 161.707,95.5451 160.04,92.7118 156.5,91C 159.272,90.4743 161.938,89.6409 164.5,88.5C 176.627,72.8008 177.793,56.1341 168,38.5C 163.138,33.0591 156.971,30.2258 149.5,30C 127.172,28.358 104.839,28.6913 82.5,31C 78.0558,32.3892 73.7225,34.0558 69.5,36C 66.3799,38.4077 65.0466,41.5743 65.5,45.5C 62.4913,60.5846 64.8247,74.7512 72.5,88C 75.7835,89.1245 79.1169,90.1245 82.5,91C 80.6667,92.1667 78.8333,93.3333 77,94.5C 76,93.8333 75,93.1667 74,92.5C 68.5934,93.4732 63.0934,93.8066 57.5,93.5C 56.8333,93.5 56.1667,93.5 55.5,93.5C 59.7017,92.7074 64.0351,91.8741 68.5,91C 64.5769,87.3232 62.0769,82.8232 61,77.5C 57.1878,63.5893 57.8545,49.9227 63,36.5C 66.1005,31.1999 70.6005,27.6999 76.5,26C 81.1042,24.9393 85.7709,24.2727 90.5,24C 110.833,23.3333 131.167,23.3333 151.5,24C 167.201,25.3678 176.034,33.8678 178,49.5C 180.496,61.0408 179.83,72.3742 176,83.5C 174.533,86.2664 172.7,88.7664 170.5,91C 174.102,92.0762 177.769,92.9095 181.5,93.5C 182.8,96.3092 182.8,98.9759 181.5,101.5 Z"/></g>
<g><path style="opacity:1" fill="#d7d5d0" d="M 161.5,99.5 C 160.857,97.9236 159.857,96.5903 158.5,95.5C 151.351,94.2203 144.017,93.7203 136.5,94C 135.944,94.3826 135.611,94.8826 135.5,95.5C 134.167,96.8333 132.833,96.8333 131.5,95.5C 130.5,95.5 129.5,95.5 128.5,95.5C 128.633,100.272 127.3,100.438 124.5,96C 123.552,95.5172 122.552,95.3505 121.5,95.5C 121.19,98.7131 121.523,101.713 122.5,104.5C 122.5,104.833 122.5,105.167 122.5,105.5C 100.222,105.554 78.2223,106.054 56.5,107C 54.2249,102.68 53.8916,98.1803 55.5,93.5C 56.1667,93.5 56.8333,93.5 57.5,93.5C 57.5,94.1667 57.5,94.8333 57.5,95.5C 57.1936,98.3854 57.5269,101.052 58.5,103.5C 59.964,104.16 61.6307,104.493 63.5,104.5C 66.7406,104.552 69.7406,103.885 72.5,102.5C 72.5,103.833 73.1667,104.5 74.5,104.5C 75.7348,104.279 76.7348,103.612 77.5,102.5C 78.1835,102.863 78.8501,103.196 79.5,103.5C 82.0545,104.388 84.7212,104.721 87.5,104.5C 93.8333,104.5 100.167,104.5 106.5,104.5C 110.167,104.5 113.833,104.5 117.5,104.5C 118.042,100.741 116.708,98.0739 113.5,96.5C 113.5,96.1667 113.5,95.8333 113.5,95.5C 111.511,94.1134 109.678,94.4468 108,96.5C 107.837,94.6133 108.671,93.1133 110.5,92C 109.5,91.6667 108.5,91.3333 107.5,91C 123.504,90.4357 139.504,89.7691 155.5,89C 163.271,85.9793 167.937,80.646 169.5,73C 170.26,71.5589 170.926,70.0589 171.5,68.5C 170.735,58.7107 169.235,49.044 167,39.5C 164.559,37.0314 161.726,35.198 158.5,34C 134.66,32.5595 110.826,32.0595 87,32.5C 77.2486,32.9431 70.0819,37.2764 65.5,45.5C 65.0466,41.5743 66.3799,38.4077 69.5,36C 73.7225,34.0558 78.0558,32.3892 82.5,31C 104.839,28.6913 127.172,28.358 149.5,30C 156.971,30.2258 163.138,33.0591 168,38.5C 177.793,56.1341 176.627,72.8008 164.5,88.5C 161.938,89.6409 159.272,90.4743 156.5,91C 160.04,92.7118 161.707,95.5451 161.5,99.5 Z"/></g>
<g><path style="opacity:1" fill="#cfcdc9" d="M 113.5,95.5 C 109.915,96.2657 107.915,98.5991 107.5,102.5C 106.662,102.842 106.328,103.508 106.5,104.5C 100.167,104.5 93.8333,104.5 87.5,104.5C 88.6796,101.83 88.513,99.1637 87,96.5C 80.7125,94.3789 78.2125,96.7122 79.5,103.5C 78.8501,103.196 78.1835,102.863 77.5,102.5C 76.7348,103.612 75.7348,104.279 74.5,104.5C 75.4025,101.609 75.7359,98.6085 75.5,95.5C 74.5,95.5 73.5,95.5 72.5,95.5C 72.5,97.8333 72.5,100.167 72.5,102.5C 69.7406,103.885 66.7406,104.552 63.5,104.5C 61.6307,104.493 59.964,104.16 58.5,103.5C 60.045,102.77 60.8784,101.437 61,99.5C 62.5707,101.923 64.7374,103.256 67.5,103.5C 67.8134,100.753 67.48,98.0865 66.5,95.5C 65.7022,97.0777 65.2022,98.7444 65,100.5C 63.647,99.3147 62.4803,97.9814 61.5,96.5C 60.3112,95.5713 58.9778,95.238 57.5,95.5C 57.5,94.8333 57.5,94.1667 57.5,93.5C 63.0934,93.8066 68.5934,93.4732 74,92.5C 75,93.1667 76,93.8333 77,94.5C 78.8333,93.3333 80.6667,92.1667 82.5,91C 79.1169,90.1245 75.7835,89.1245 72.5,88C 64.8247,74.7512 62.4913,60.5846 65.5,45.5C 70.0819,37.2764 77.2486,32.9431 87,32.5C 110.826,32.0595 134.66,32.5595 158.5,34C 161.726,35.198 164.559,37.0314 167,39.5C 169.235,49.044 170.735,58.7107 171.5,68.5C 170.926,70.0589 170.26,71.5589 169.5,73C 167.937,80.646 163.271,85.9793 155.5,89C 139.504,89.7691 123.504,90.4357 107.5,91C 108.5,91.3333 109.5,91.6667 110.5,92C 108.671,93.1133 107.837,94.6133 108,96.5C 109.678,94.4468 111.511,94.1134 113.5,95.5 Z"/></g>
<g><path style="opacity:1" fill="#c2c1bc" d="M 78.5,82.5 C 77.5041,82.5858 76.6708,82.2524 76,81.5C 71.8613,68.8187 70.5279,55.8187 72,42.5C 72.9476,40.4299 74.4476,38.9299 76.5,38C 79.9562,36.9585 83.4562,36.1252 87,35.5C 107.725,35.5893 128.392,35.5893 149,35.5C 153.236,35.4938 157.402,35.9938 161.5,37C 163,37.8333 164.167,39 165,40.5C 165.369,50.9031 166.036,61.2364 167,71.5C 166.944,78.4627 163.777,83.296 157.5,86C 131.468,86.9205 105.468,86.4205 79.5,84.5C 79.1373,83.8165 78.8039,83.1499 78.5,82.5 Z"/></g>
<g><path style="opacity:1" fill="#646361" d="M 76.5,63.5 C 77.4959,63.4142 78.3292,63.7476 79,64.5C 79.3108,66.556 79.8108,68.556 80.5,70.5C 80.1445,71.5223 79.4778,72.189 78.5,72.5C 78.6399,70.8762 77.9733,69.7096 76.5,69C 77.3081,68.6924 77.9747,68.1924 78.5,67.5C 77.8201,66.1401 77.1534,64.8068 76.5,63.5 Z"/></g>
<g><path style="opacity:1" fill="#817f7d" d="M 159.5,51.5 C 159.716,55.8049 160.049,60.1383 160.5,64.5C 159.5,64.5 158.5,64.5 157.5,64.5C 157.52,62.857 156.853,61.5237 155.5,60.5C 159.459,57.2135 158.792,55.0468 153.5,54C 155.845,53.7635 157.845,52.9302 159.5,51.5 Z"/></g>
<g><path style="opacity:1" fill="#aaa8a5" d="M 73.5,45.5 C 75.099,45.2322 76.4324,45.5655 77.5,46.5C 77.3314,51.1811 76.9981,55.8478 76.5,60.5C 76.0472,61.4584 75.3805,62.2917 74.5,63C 75.0944,63.4643 75.7611,63.631 76.5,63.5C 77.1534,64.8068 77.8201,66.1401 78.5,67.5C 77.9747,68.1924 77.3081,68.6924 76.5,69C 77.9733,69.7096 78.6399,70.8762 78.5,72.5C 77.7611,72.369 77.0944,72.5357 76.5,73C 77.5,73.3333 78.5,73.6667 79.5,74C 79.8249,75.9611 79.1582,77.7944 77.5,79.5C 76.8826,79.3893 76.3826,79.056 76,78.5C 73.8857,67.6046 73.0524,56.6046 73.5,45.5 Z"/></g>
<g><path style="opacity:1" fill="#7a7976" d="M 77.5,46.5 C 79.3786,46.3932 79.7119,46.8932 78.5,48C 80.9734,49.925 80.9734,51.7583 78.5,53.5C 81.028,54.5174 81.028,55.6841 78.5,57C 80.994,59.3932 80.3273,60.5599 76.5,60.5C 76.9981,55.8478 77.3314,51.1811 77.5,46.5 Z"/></g>
<g><path style="opacity:1" fill="#b3b1ad" d="M 164.5,42.5 C 164.5,50.8333 164.5,59.1667 164.5,67.5C 163.5,67.5 162.5,67.5 161.5,67.5C 161.737,66.209 161.404,65.209 160.5,64.5C 160.049,60.1383 159.716,55.8049 159.5,51.5C 160.043,51.44 160.376,51.1067 160.5,50.5C 159.271,49.7189 157.938,49.2189 156.5,49C 157.5,48.6667 158.5,48.3333 159.5,48C 158.695,46.8873 158.028,45.7206 157.5,44.5C 159.456,42.8516 161.789,42.1849 164.5,42.5 Z"/></g>
<g><path style="opacity:1" fill="#141414" d="M 90.5,41.5 C 90.1961,42.1499 89.8627,42.8165 89.5,43.5C 93.6237,45.787 96.2903,49.1203 97.5,53.5C 99.3588,53.5391 100.692,52.7058 101.5,51C 100.167,49.3333 100.167,47.6667 101.5,46C 100.584,45.7216 99.9175,45.2216 99.5,44.5C 100.978,44.762 102.311,44.4287 103.5,43.5C 102.975,42.8076 102.308,42.3076 101.5,42C 105.833,41.3333 110.167,41.3333 114.5,42C 117.147,42.3149 117.813,43.4816 116.5,45.5C 117.955,46.7445 119.289,46.5778 120.5,45C 120.043,44.586 119.709,44.086 119.5,43.5C 120.689,42.5713 122.022,42.238 123.5,42.5C 127.502,42.0357 131.169,42.7024 134.5,44.5C 133.653,45.9663 132.32,46.7996 130.5,47C 137.172,50.03 136.839,52.3633 129.5,54C 134.375,54.8072 139.042,54.1406 143.5,52C 140.456,51.6411 140.122,50.9745 142.5,50C 141.429,49.1482 140.429,48.3149 139.5,47.5C 140.926,46.6588 142.26,45.6588 143.5,44.5C 146.028,43.0652 148.695,42.0652 151.5,41.5C 152.833,41.5 154.167,41.5 155.5,41.5C 156.551,42.2223 157.218,43.2223 157.5,44.5C 158.028,45.7206 158.695,46.8873 159.5,48C 158.5,48.3333 157.5,48.6667 156.5,49C 157.938,49.2189 159.271,49.7189 160.5,50.5C 160.376,51.1067 160.043,51.44 159.5,51.5C 157.845,52.9302 155.845,53.7635 153.5,54C 158.792,55.0468 159.459,57.2135 155.5,60.5C 156.853,61.5237 157.52,62.857 157.5,64.5C 158.5,64.5 159.5,64.5 160.5,64.5C 161.404,65.209 161.737,66.209 161.5,67.5C 162.5,67.5 163.5,67.5 164.5,67.5C 163.817,69.1765 162.483,69.8432 160.5,69.5C 158.473,69.3379 156.473,69.5045 154.5,70C 158.996,71.5368 159.996,74.0368 157.5,77.5C 158.347,78.9663 159.68,79.7996 161.5,80C 160.207,80.49 158.873,80.6567 157.5,80.5C 152.473,80.4971 147.473,80.1637 142.5,79.5C 142.5,78.5 142.5,77.5 142.5,76.5C 140.5,76.5 138.5,76.5 136.5,76.5C 135.127,76.3433 133.793,76.51 132.5,77C 133.973,77.7096 134.64,78.8762 134.5,80.5C 129.261,81.0367 124.261,80.37 119.5,78.5C 117.664,79.0276 115.997,79.6942 114.5,80.5C 109.3,81.0065 106.3,80.6731 105.5,79.5C 105.5,78.5 105.5,77.5 105.5,76.5C 102.612,77.0102 100.279,76.3435 98.5,74.5C 97.7407,72.5692 96.4074,71.0692 94.5,70C 94.8333,69.6667 95.1667,69.3333 95.5,69C 93.1039,68.134 92.4372,68.634 93.5,70.5C 92.91,71.7989 91.91,72.6322 90.5,73C 91.3943,74.1036 92.3943,75.2702 93.5,76.5C 93.5,77.5 93.5,78.5 93.5,79.5C 88.8809,80.3136 84.2142,80.6469 79.5,80.5C 78.8333,80.5 78.1667,80.5 77.5,80.5C 77.5,80.1667 77.5,79.8333 77.5,79.5C 79.1582,77.7944 79.8249,75.9611 79.5,74C 78.5,73.6667 77.5,73.3333 76.5,73C 77.0944,72.5357 77.7611,72.369 78.5,72.5C 79.4778,72.189 80.1445,71.5223 80.5,70.5C 79.8108,68.556 79.3108,66.556 79,64.5C 78.3292,63.7476 77.4959,63.4142 76.5,63.5C 75.7611,63.631 75.0944,63.4643 74.5,63C 75.3805,62.2917 76.0472,61.4584 76.5,60.5C 80.3273,60.5599 80.994,59.3932 78.5,57C 81.028,55.6841 81.028,54.5174 78.5,53.5C 80.9734,51.7583 80.9734,49.925 78.5,48C 79.7119,46.8932 79.3786,46.3932 77.5,46.5C 76.4324,45.5655 75.099,45.2322 73.5,45.5C 73.3893,44.8826 73.056,44.3826 72.5,44C 74.2475,43.6481 75.9142,43.1481 77.5,42.5C 81.7853,41.7051 86.1186,41.3718 90.5,41.5 Z"/></g>
<g><path style="opacity:1" fill="#50504e" d="M 98.5,74.5 C 95.6722,72.5993 94.0056,73.266 93.5,76.5C 92.3943,75.2702 91.3943,74.1036 90.5,73C 91.91,72.6322 92.91,71.7989 93.5,70.5C 92.4372,68.634 93.1039,68.134 95.5,69C 95.1667,69.3333 94.8333,69.6667 94.5,70C 96.4074,71.0692 97.7407,72.5692 98.5,74.5 Z"/></g>
<g><path style="opacity:1" fill="#595856" d="M 115.5,68.5 C 117.179,68.8923 118.846,69.3923 120.5,70C 117.833,71 117.833,72 120.5,73C 119.672,73.9147 118.672,74.5814 117.5,75C 119.167,75.3333 120.833,75.6667 122.5,76C 119.5,76.6667 116.5,76.6667 113.5,76C 115.513,74.2087 115.513,72.8753 113.5,72C 116.167,71.3333 116.167,70.6667 113.5,70C 114.416,69.7216 115.082,69.2216 115.5,68.5 Z"/></g>
<g><path style="opacity:1" fill="#605f5d" d="M 135.5,69.5 C 138.4,69.2796 141.067,69.9462 143.5,71.5C 142.624,72.2508 141.624,72.7508 140.5,73C 142.256,73.2022 143.922,73.7022 145.5,74.5C 140.533,75.6623 135.533,75.8289 130.5,75C 133.615,74.5071 135.281,72.6737 135.5,69.5 Z"/></g>
<g><path style="opacity:1" fill="#595857" d="M 113.5,57.5 C 113.735,56.9033 114.235,56.5699 115,56.5C 116.5,57 118,57.5 119.5,58C 118.027,58.7096 117.36,59.8762 117.5,61.5C 120.205,61.3802 120.872,62.3802 119.5,64.5C 121.078,65.2978 122.744,65.7978 124.5,66C 121.243,67.0429 117.91,67.5429 114.5,67.5C 114.579,66.0695 114.246,64.7362 113.5,63.5C 116.076,62.1166 115.742,61.2833 112.5,61C 115.642,59.982 115.976,58.8153 113.5,57.5 Z"/></g>
<g><path style="opacity:1" fill="#585756" d="M 114.5,49.5 C 115.946,48.3871 117.613,48.2204 119.5,49C 120.337,50.0113 120.67,51.1779 120.5,52.5C 118.473,52.6621 116.473,52.4955 114.5,52C 116.842,50.6081 116.842,49.7748 114.5,49.5 Z"/></g>
<g><path style="opacity:1" fill="#696866" d="M 134.5,44.5 C 136.048,44.8212 136.715,45.8212 136.5,47.5C 137.5,47.5 138.5,47.5 139.5,47.5C 140.429,48.3149 141.429,49.1482 142.5,50C 140.122,50.9745 140.456,51.6411 143.5,52C 139.042,54.1406 134.375,54.8072 129.5,54C 136.839,52.3633 137.172,50.03 130.5,47C 132.32,46.7996 133.653,45.9663 134.5,44.5 Z"/></g>
<g><path style="opacity:1" fill="#8d8c89" d="M 143.5,44.5 C 142.26,45.6588 140.926,46.6588 139.5,47.5C 138.5,47.5 137.5,47.5 136.5,47.5C 136.715,45.8212 136.048,44.8212 134.5,44.5C 135.514,43.2353 137.014,42.5687 139,42.5C 140.986,42.5687 142.486,43.2353 143.5,44.5 Z"/></g>
<g><path style="opacity:1" fill="#747370" d="M 90.5,41.5 C 92.9979,43.6663 95.9979,44.6663 99.5,44.5C 99.9175,45.2216 100.584,45.7216 101.5,46C 100.167,47.6667 100.167,49.3333 101.5,51C 100.692,52.7058 99.3588,53.5391 97.5,53.5C 96.2903,49.1203 93.6237,45.787 89.5,43.5C 89.8627,42.8165 90.1961,42.1499 90.5,41.5 Z"/></g>
<g><path style="opacity:1" fill="#464443" d="M 155.5,41.5 C 156.5,41.5 157.5,41.5 158.5,41.5C 160.735,41.2053 162.735,41.5386 164.5,42.5C 161.789,42.1849 159.456,42.8516 157.5,44.5C 157.218,43.2223 156.551,42.2223 155.5,41.5 Z"/></g>
<g><path style="opacity:1" fill="#444342" d="M 123.5,42.5 C 132.652,41.5064 141.985,41.1731 151.5,41.5C 148.695,42.0652 146.028,43.0652 143.5,44.5C 142.486,43.2353 140.986,42.5687 139,42.5C 137.014,42.5687 135.514,43.2353 134.5,44.5C 131.169,42.7024 127.502,42.0357 123.5,42.5 Z"/></g>
<g><path style="opacity:1" fill="#a09e9b" d="M 158.5,41.5 C 157.5,41.5 156.5,41.5 155.5,41.5C 154.167,41.5 152.833,41.5 151.5,41.5C 141.985,41.1731 132.652,41.5064 123.5,42.5C 122.022,42.238 120.689,42.5713 119.5,43.5C 119.709,44.086 120.043,44.586 120.5,45C 119.289,46.5778 117.955,46.7445 116.5,45.5C 117.813,43.4816 117.147,42.3149 114.5,42C 110.167,41.3333 105.833,41.3333 101.5,42C 102.308,42.3076 102.975,42.8076 103.5,43.5C 102.311,44.4287 100.978,44.762 99.5,44.5C 95.9979,44.6663 92.9979,43.6663 90.5,41.5C 86.1186,41.3718 81.7853,41.7051 77.5,42.5C 77.6107,41.8826 77.944,41.3826 78.5,41C 84.5512,39.0056 90.5512,39.1723 96.5,41.5C 104.092,39.0085 111.925,38.0085 120,38.5C 127.353,38.2954 134.52,38.962 141.5,40.5C 145.162,40.1115 148.828,39.7782 152.5,39.5C 154.952,39.5391 156.952,40.2057 158.5,41.5 Z"/></g>
<g><path style="opacity:1" fill="#5e5d5b" d="M 160.5,69.5 C 160.5,72.1667 160.5,74.8333 160.5,77.5C 159.5,77.5 158.5,77.5 157.5,77.5C 159.996,74.0368 158.996,71.5368 154.5,70C 156.473,69.5045 158.473,69.3379 160.5,69.5 Z"/></g>
<g><path style="opacity:1" fill="#464544" d="M 136.5,76.5 C 135.047,77.8249 135.381,78.6582 137.5,79C 136.473,79.5133 135.473,80.0133 134.5,80.5C 134.64,78.8762 133.973,77.7096 132.5,77C 133.793,76.51 135.127,76.3433 136.5,76.5 Z"/></g>
<g><path style="opacity:1" fill="#93928f" d="M 136.5,76.5 C 138.5,76.5 140.5,76.5 142.5,76.5C 142.5,77.5 142.5,78.5 142.5,79.5C 147.473,80.1637 152.473,80.4971 157.5,80.5C 155.193,82.0468 152.527,82.7135 149.5,82.5C 145.941,82.6003 142.608,81.9336 139.5,80.5C 128.427,82.6888 117.427,83.0221 106.5,81.5C 109.385,81.8064 112.052,81.4731 114.5,80.5C 115.997,79.6942 117.664,79.0276 119.5,78.5C 124.261,80.37 129.261,81.0367 134.5,80.5C 135.473,80.0133 136.473,79.5133 137.5,79C 135.381,78.6582 135.047,77.8249 136.5,76.5 Z"/></g>
<g><path style="opacity:1" fill="#7b7a78" d="M 98.5,74.5 C 100.279,76.3435 102.612,77.0102 105.5,76.5C 105.5,77.5 105.5,78.5 105.5,79.5C 106.3,80.6731 109.3,81.0065 114.5,80.5C 112.052,81.4731 109.385,81.8064 106.5,81.5C 104.801,81.6602 103.134,81.4935 101.5,81C 98.3053,77.839 94.972,77.839 91.5,81C 87.3112,81.8119 83.3112,81.6453 79.5,80.5C 84.2142,80.6469 88.8809,80.3136 93.5,79.5C 93.5,78.5 93.5,77.5 93.5,76.5C 94.0056,73.266 95.6722,72.5993 98.5,74.5 Z"/></g>
<g><path style="opacity:1" fill="#b2b0ad" d="M 164.5,67.5 C 165.124,67.9169 165.457,68.5836 165.5,69.5C 164.865,70.9663 164.031,72.2997 163,73.5C 162.818,76.2263 162.318,78.8929 161.5,81.5C 159.459,82.2357 157.459,83.0691 155.5,84C 137.837,85.4294 120.17,85.596 102.5,84.5C 100.997,83.443 99.3302,82.7763 97.5,82.5C 91.0419,84.9909 84.7086,84.9909 78.5,82.5C 78.1667,81.8333 77.8333,81.1667 77.5,80.5C 78.1667,80.5 78.8333,80.5 79.5,80.5C 83.3112,81.6453 87.3112,81.8119 91.5,81C 94.972,77.839 98.3053,77.839 101.5,81C 103.134,81.4935 104.801,81.6602 106.5,81.5C 117.427,83.0221 128.427,82.6888 139.5,80.5C 142.608,81.9336 145.941,82.6003 149.5,82.5C 152.527,82.7135 155.193,82.0468 157.5,80.5C 158.873,80.6567 160.207,80.49 161.5,80C 159.68,79.7996 158.347,78.9663 157.5,77.5C 158.5,77.5 159.5,77.5 160.5,77.5C 160.5,74.8333 160.5,72.1667 160.5,69.5C 162.483,69.8432 163.817,69.1765 164.5,67.5 Z"/></g>
<g><path style="opacity:1" fill="#1f1f1e" d="M 57.5,95.5 C 58.9778,95.238 60.3112,95.5713 61.5,96.5C 62.4803,97.9814 63.647,99.3147 65,100.5C 65.2022,98.7444 65.7022,97.0777 66.5,95.5C 67.48,98.0865 67.8134,100.753 67.5,103.5C 64.7374,103.256 62.5707,101.923 61,99.5C 60.8784,101.437 60.045,102.77 58.5,103.5C 57.5269,101.052 57.1936,98.3854 57.5,95.5 Z"/></g>
<g><path style="opacity:1" fill="#3b3a39" d="M 74.5,104.5 C 73.1667,104.5 72.5,103.833 72.5,102.5C 72.5,100.167 72.5,97.8333 72.5,95.5C 73.5,95.5 74.5,95.5 75.5,95.5C 75.7359,98.6085 75.4025,101.609 74.5,104.5 Z"/></g>
<g><path style="opacity:1" fill="#a2a09d" d="M 113.5,96.5 C 116.708,98.0739 118.042,100.741 117.5,104.5C 113.833,104.5 110.167,104.5 106.5,104.5C 106.328,103.508 106.662,102.842 107.5,102.5C 109.995,102.405 112.662,102.738 115.5,103.5C 115.833,103.167 116.167,102.833 116.5,102.5C 115.487,100.473 114.487,98.4734 113.5,96.5 Z"/></g>
<g><path style="opacity:1" fill="#2e2d2c" d="M 87.5,104.5 C 84.7212,104.721 82.0545,104.388 79.5,103.5C 78.2125,96.7122 80.7125,94.3789 87,96.5C 88.513,99.1637 88.6796,101.83 87.5,104.5 Z"/></g>
<g><path style="opacity:1" fill="#494847" d="M 95.5,96.5 C 93.6565,98.2789 92.9898,100.612 93.5,103.5C 92.5269,101.052 92.1936,98.3854 92.5,95.5C 93.791,95.2627 94.791,95.596 95.5,96.5 Z"/></g>
<g><path style="opacity:1" fill="#1d1d1c" d="M 93.5,103.5 C 92.9898,100.612 93.6565,98.2789 95.5,96.5C 96.1834,98.1765 97.5168,98.8432 99.5,98.5C 99.5,97.5 99.5,96.5 99.5,95.5C 100.5,95.5 101.5,95.5 102.5,95.5C 102.5,98.1667 102.5,100.833 102.5,103.5C 100.723,103.214 99.0564,102.547 97.5,101.5C 96.1331,102.225 94.7997,102.892 93.5,103.5 Z"/></g>
<g><path style="opacity:1" fill="#252424" d="M 131.5,95.5 C 131.5,98.5 131.5,101.5 131.5,104.5C 130.022,104.762 128.689,104.429 127.5,103.5C 126.52,102.019 125.353,100.685 124,99.5C 123.802,101.382 123.302,103.048 122.5,104.5C 121.523,101.713 121.19,98.7131 121.5,95.5C 122.552,95.3505 123.552,95.5172 124.5,96C 127.3,100.438 128.633,100.272 128.5,95.5C 129.5,95.5 130.5,95.5 131.5,95.5 Z"/></g>
<g><path style="opacity:1" fill="#1c1c1b" d="M 113.5,95.5 C 113.5,95.8333 113.5,96.1667 113.5,96.5C 114.487,98.4734 115.487,100.473 116.5,102.5C 116.167,102.833 115.833,103.167 115.5,103.5C 112.662,102.738 109.995,102.405 107.5,102.5C 107.915,98.5991 109.915,96.2657 113.5,95.5 Z"/></g>
<g><path style="opacity:1" fill="#cbcac5" d="M 158.5,95.5 C 159.857,96.5903 160.857,97.9236 161.5,99.5C 165.305,101.093 167.638,99.7593 168.5,95.5C 172.315,94.1923 175.981,94.1923 179.5,95.5C 181.308,96.9179 181.975,98.9179 181.5,101.5C 179.462,103.532 177.129,105.198 174.5,106.5C 171.641,105.57 169.307,103.904 167.5,101.5C 166.859,102.993 165.859,103.993 164.5,104.5C 163.833,100.5 163.167,100.5 162.5,104.5C 157.537,105.496 152.537,105.663 147.5,105C 147.002,103.842 146.169,103.009 145,102.5C 141.783,106.449 138.616,106.449 135.5,102.5C 131.695,105.261 127.361,106.261 122.5,105.5C 122.5,105.167 122.5,104.833 122.5,104.5C 123.302,103.048 123.802,101.382 124,99.5C 125.353,100.685 126.52,102.019 127.5,103.5C 128.689,104.429 130.022,104.762 131.5,104.5C 131.5,101.5 131.5,98.5 131.5,95.5C 132.833,96.8333 134.167,96.8333 135.5,95.5C 135.611,94.8826 135.944,94.3826 136.5,94C 144.017,93.7203 151.351,94.2203 158.5,95.5 Z"/></g>
<g><path style="opacity:1" fill="#4c4b49" d="M 164.5,104.5 C 163.833,104.5 163.167,104.5 162.5,104.5C 163.167,100.5 163.833,100.5 164.5,104.5 Z"/></g>
<g><path style="opacity:1" fill="#1f1f1f" d="M 179.5,95.5 C 178.36,97.7802 177.193,100.114 176,102.5C 174.951,103.517 173.784,103.684 172.5,103C 170.405,100.71 169.738,98.2095 170.5,95.5C 172.146,96.7786 173.313,98.4453 174,100.5C 175.084,99.3349 175.917,98.0016 176.5,96.5C 177.325,95.6143 178.325,95.281 179.5,95.5 Z"/></g>
<g><path style="opacity:1" fill="#2a2929" d="M 158.5,95.5 C 158.5,98.1667 158.5,100.833 158.5,103.5C 156.723,103.214 155.056,102.547 153.5,101.5C 151.964,102.249 150.631,103.249 149.5,104.5C 148.516,101.572 148.183,98.5719 148.5,95.5C 149.5,95.5 150.5,95.5 151.5,95.5C 151.5,96.5 151.5,97.5 151.5,98.5C 152.833,98.5 154.167,98.5 155.5,98.5C 155.5,97.5 155.5,96.5 155.5,95.5C 156.5,95.5 157.5,95.5 158.5,95.5 Z"/></g>
<g><path style="opacity:1" fill="#272726" d="M 135.5,95.5 C 138.5,95.5 141.5,95.5 144.5,95.5C 144.5,96.5 144.5,97.5 144.5,98.5C 143.5,98.5 142.5,98.5 141.5,98.5C 141.5,100.5 141.5,102.5 141.5,104.5C 140.5,104.5 139.5,104.5 138.5,104.5C 138.5,102.5 138.5,100.5 138.5,98.5C 137.5,98.5 136.5,98.5 135.5,98.5C 135.5,97.5 135.5,96.5 135.5,95.5 Z"/></g>
</svg>
