<?xml version="1.0" encoding="UTF-8"?>
<svg version="1.1" xmlns="http://www.w3.org/2000/svg" width="304" height="193">
<path d="M0 0 C100.32 0 200.64 0 304 0 C304 63.69 304 127.38 304 193 C203.68 193 103.36 193 0 193 C0 129.31 0 65.62 0 0 Z " fill="#FDFDFE" transform="translate(0,0)"/>
<path d="M0 0 C1.03253906 0.00676758 1.03253906 0.00676758 2.0859375 0.01367188 C3.76566335 0.02533664 5.44534375 0.04326729 7.125 0.0625 C6.465 1.7125 5.805 3.3625 5.125 5.0625 C5.785 5.10375 6.445 5.145 7.125 5.1875 C11.51413955 6.4676657 14.61026529 9.21059367 18.125 12.0625 C17.795 14.0425 17.465 16.0225 17.125 18.0625 C18.445 18.0625 19.765 18.0625 21.125 18.0625 C21.125 17.0725 21.125 16.0825 21.125 15.0625 C21.785 15.0625 22.445 15.0625 23.125 15.0625 C22.63 14.0725 22.63 14.0725 22.125 13.0625 C22.05549459 11.52226004 22.04047643 9.97915012 22.0625 8.4375 C22.07152344 7.62023438 22.08054688 6.80296875 22.08984375 5.9609375 C22.10144531 5.33445312 22.11304688 4.70796875 22.125 4.0625 C23.115 3.7325 24.105 3.4025 25.125 3.0625 C24.465 2.7325 23.805 2.4025 23.125 2.0625 C23.125 1.4025 23.125 0.7425 23.125 0.0625 C26.02108593 0.00836755 28.91615195 -0.03123641 31.8125 -0.0625 C33.03743164 -0.08763672 33.03743164 -0.08763672 34.28710938 -0.11328125 C38.64104459 -0.14853579 42.22531952 -0.13731976 46.125 2.0625 C46.62 3.0525 46.62 3.0525 47.125 4.0625 C46.465 4.0625 45.805 4.0625 45.125 4.0625 C45.125 5.0525 45.125 6.0425 45.125 7.0625 C47.6 6.5675 47.6 6.5675 50.125 6.0625 C50.125 4.4125 50.125 2.7625 50.125 1.0625 C55.60769069 -0.09414737 60.92839274 -0.05166255 66.5 0 C67.42683594 0.00451172 68.35367188 0.00902344 69.30859375 0.01367188 C71.58079709 0.02538426 73.85286388 0.04178628 76.125 0.0625 C76.125 0.7225 76.125 1.3825 76.125 2.0625 C74.805 2.0625 73.485 2.0625 72.125 2.0625 C72.310625 2.825625 72.49625 3.58875 72.6875 4.375 C73.125 7.0625 73.125 7.0625 72.125 10.0625 C73.115 10.5575 73.115 10.5575 74.125 11.0625 C74.125 12.3825 74.125 13.7025 74.125 15.0625 C73.465 15.0625 72.805 15.0625 72.125 15.0625 C71.795 16.0525 71.465 17.0425 71.125 18.0625 C73.765 18.0625 76.405 18.0625 79.125 18.0625 C79.125 17.4025 79.125 16.7425 79.125 16.0625 C80.445 15.7325 81.765 15.4025 83.125 15.0625 C82.77713292 13.08713255 82.77713292 13.08713255 82.125 11.0625 C81.135 10.5675 81.135 10.5675 80.125 10.0625 C80.125 9.0725 80.125 8.0825 80.125 7.0625 C81.445 7.0625 82.765 7.0625 84.125 7.0625 C84.125 6.0725 84.125 5.0825 84.125 4.0625 C84.785 4.0625 85.445 4.0625 86.125 4.0625 C86.125 3.0725 86.125 2.0825 86.125 1.0625 C88.89550026 0.8678162 91.66613002 0.68147208 94.4375 0.5 C95.22318359 0.44392578 96.00886719 0.38785156 96.81835938 0.33007812 C97.9543457 0.25756836 97.9543457 0.25756836 99.11328125 0.18359375 C99.80977783 0.1364624 100.50627441 0.08933105 101.22387695 0.04077148 C103.125 0.0625 103.125 0.0625 106.125 1.0625 C106.62 4.0325 106.62 4.0325 107.125 7.0625 C104.815 7.0625 102.505 7.0625 100.125 7.0625 C100.125 7.7225 100.125 8.3825 100.125 9.0625 C101.445 9.0625 102.765 9.0625 104.125 9.0625 C104.125 10.0525 104.125 11.0425 104.125 12.0625 C106.105 12.0625 108.085 12.0625 110.125 12.0625 C109.444375 13.135 108.76375 14.2075 108.0625 15.3125 C106.37769852 18.09418644 106.37769852 18.09418644 106.4375 21.25 C106.664375 21.848125 106.89125 22.44625 107.125 23.0625 C106.6875 25.3125 106.6875 25.3125 106.125 27.0625 C105.465 27.0625 104.805 27.0625 104.125 27.0625 C104.125 27.7225 104.125 28.3825 104.125 29.0625 C104.785 29.0625 105.445 29.0625 106.125 29.0625 C106.125 30.7125 106.125 32.3625 106.125 34.0625 C108.105 34.0625 110.085 34.0625 112.125 34.0625 C112.125 35.0525 112.125 36.0425 112.125 37.0625 C113.115 37.3925 114.105 37.7225 115.125 38.0625 C115.125 39.3825 115.125 40.7025 115.125 42.0625 C113.805 42.0625 112.485 42.0625 111.125 42.0625 C109.32088033 44.82174185 109.1122755 45.95222103 109.5 49.3125 C109.809375 50.67375 109.809375 50.67375 110.125 52.0625 C108.805 52.0625 107.485 52.0625 106.125 52.0625 C106.125 53.3825 106.125 54.7025 106.125 56.0625 C107.445 56.0625 108.765 56.0625 110.125 56.0625 C110.125 56.7225 110.125 57.3825 110.125 58.0625 C107.10410522 58.08966089 104.08345871 58.10941657 101.0625 58.125 C100.21494141 58.13337891 99.36738281 58.14175781 98.49414062 58.15039062 C93.5888278 58.16933006 88.96055245 57.89576345 84.125 57.0625 C84.125 55.4125 84.125 53.7625 84.125 52.0625 C78.185 52.5575 78.185 52.5575 72.125 53.0625 C73.115 54.0525 74.105 55.0425 75.125 56.0625 C74.135 56.0625 73.145 56.0625 72.125 56.0625 C72.125 56.7225 72.125 57.3825 72.125 58.0625 C69.00007749 58.12041844 65.87529234 58.15606746 62.75 58.1875 C61.86054688 58.20425781 60.97109375 58.22101563 60.0546875 58.23828125 C58.77851563 58.24794922 58.77851563 58.24794922 57.4765625 58.2578125 C56.29827881 58.27352295 56.29827881 58.27352295 55.09619141 58.28955078 C53.125 58.0625 53.125 58.0625 51.125 56.0625 C48.91427023 55.81996187 48.91427023 55.81996187 46.5 55.9375 C45.68273437 55.95554688 44.86546875 55.97359375 44.0234375 55.9921875 C43.39695313 56.01539063 42.77046875 56.03859375 42.125 56.0625 C42.125 56.7225 42.125 57.3825 42.125 58.0625 C36.185 58.0625 30.245 58.0625 24.125 58.0625 C24.455 57.0725 24.785 56.0825 25.125 55.0625 C25.785 55.0625 26.445 55.0625 27.125 55.0625 C27.125 54.4025 27.125 53.7425 27.125 53.0625 C24.155 52.7325 21.185 52.4025 18.125 52.0625 C18.125 50.0825 18.125 48.1025 18.125 46.0625 C16.805 46.0625 15.485 46.0625 14.125 46.0625 C14.125 45.4025 14.125 44.7425 14.125 44.0625 C12.145 44.5575 12.145 44.5575 10.125 45.0625 C10.04273332 48.10636724 10.14891783 50.13425348 11.125 53.0625 C10.795 54.0525 10.465 55.0425 10.125 56.0625 C9.135 56.0625 8.145 56.0625 7.125 56.0625 C7.125 56.7225 7.125 57.3825 7.125 58.0625 C1.185 58.0625 -4.755 58.0625 -10.875 58.0625 C-10.875 49.0625 -10.875 49.0625 -9.875 47.0625 C-10.535 46.7325 -11.195 46.4025 -11.875 46.0625 C-10.885 45.4025 -9.895 44.7425 -8.875 44.0625 C-9.865 38.6175 -9.865 38.6175 -10.875 33.0625 C-11.865 32.7325 -12.855 32.4025 -13.875 32.0625 C-13.5625 30.125 -13.5625 30.125 -12.875 28.0625 C-11.885 27.7325 -10.895 27.4025 -9.875 27.0625 C-10.04 25.94875 -10.205 24.835 -10.375 23.6875 C-11.9375 11.1875 -11.9375 11.1875 -9.875 7.0625 C-12.515 6.7325 -15.155 6.4025 -17.875 6.0625 C-17.875 5.0725 -17.875 4.0825 -17.875 3.0625 C-16.555 3.0625 -15.235 3.0625 -13.875 3.0625 C-13.875 2.4025 -13.875 1.7425 -13.875 1.0625 C-9.21962644 0.14157719 -4.72814567 -0.05955997 0 0 Z " fill="#131415" transform="translate(101.875,48.9375)"/>
<path d="M0 0 C1.03253906 0.00676758 1.03253906 0.00676758 2.0859375 0.01367188 C3.76566335 0.02533664 5.44534375 0.04326729 7.125 0.0625 C6.465 1.7125 5.805 3.3625 5.125 5.0625 C5.785 5.10375 6.445 5.145 7.125 5.1875 C11.51413955 6.4676657 14.61026529 9.21059367 18.125 12.0625 C17.795 14.0425 17.465 16.0225 17.125 18.0625 C18.445 18.0625 19.765 18.0625 21.125 18.0625 C21.125 17.0725 21.125 16.0825 21.125 15.0625 C21.785 15.0625 22.445 15.0625 23.125 15.0625 C22.63 14.0725 22.63 14.0725 22.125 13.0625 C22.05549459 11.52226004 22.04047643 9.97915012 22.0625 8.4375 C22.07152344 7.62023438 22.08054688 6.80296875 22.08984375 5.9609375 C22.10144531 5.33445312 22.11304688 4.70796875 22.125 4.0625 C23.115 3.7325 24.105 3.4025 25.125 3.0625 C24.465 2.7325 23.805 2.4025 23.125 2.0625 C23.125 1.4025 23.125 0.7425 23.125 0.0625 C26.02108593 0.00836755 28.91615195 -0.03123641 31.8125 -0.0625 C33.03743164 -0.08763672 33.03743164 -0.08763672 34.28710938 -0.11328125 C38.64104459 -0.14853579 42.22531952 -0.13731976 46.125 2.0625 C46.62 3.0525 46.62 3.0525 47.125 4.0625 C45.145 4.0625 43.165 4.0625 41.125 4.0625 C41.62 5.5475 41.62 5.5475 42.125 7.0625 C42.2578125 9 42.2578125 9 42.25 11.0625 C42.25386719 12.0834375 42.25386719 12.0834375 42.2578125 13.125 C42.125 15.0625 42.125 15.0625 41.125 18.0625 C42.115 18.0625 43.105 18.0625 44.125 18.0625 C44.125 21.0625 44.125 21.0625 42.625 22.75 C42.13 23.183125 41.635 23.61625 41.125 24.0625 C41.785 24.0625 42.445 24.0625 43.125 24.0625 C42.795 25.3825 42.465 26.7025 42.125 28.0625 C41.135 28.0625 40.145 28.0625 39.125 28.0625 C38.795 29.3825 38.465 30.7025 38.125 32.0625 C39.445 32.7225 40.765 33.3825 42.125 34.0625 C42.25 40.8125 42.25 40.8125 41.125 43.0625 C42.115 43.3925 43.105 43.7225 44.125 44.0625 C43.135 44.0625 42.145 44.0625 41.125 44.0625 C41.125 44.7225 41.125 45.3825 41.125 46.0625 C42.115 46.3925 43.105 46.7225 44.125 47.0625 C43.135 48.7125 42.145 50.3625 41.125 52.0625 C44.095 52.0625 47.065 52.0625 50.125 52.0625 C49.465 53.3825 48.805 54.7025 48.125 56.0625 C46.145 56.0625 44.165 56.0625 42.125 56.0625 C42.125 56.7225 42.125 57.3825 42.125 58.0625 C36.185 58.0625 30.245 58.0625 24.125 58.0625 C24.455 57.0725 24.785 56.0825 25.125 55.0625 C25.785 55.0625 26.445 55.0625 27.125 55.0625 C27.125 54.4025 27.125 53.7425 27.125 53.0625 C24.155 52.7325 21.185 52.4025 18.125 52.0625 C18.125 50.0825 18.125 48.1025 18.125 46.0625 C16.805 46.0625 15.485 46.0625 14.125 46.0625 C14.125 45.4025 14.125 44.7425 14.125 44.0625 C12.145 44.5575 12.145 44.5575 10.125 45.0625 C10.04273332 48.10636724 10.14891783 50.13425348 11.125 53.0625 C10.795 54.0525 10.465 55.0425 10.125 56.0625 C9.135 56.0625 8.145 56.0625 7.125 56.0625 C7.125 56.7225 7.125 57.3825 7.125 58.0625 C1.185 58.0625 -4.755 58.0625 -10.875 58.0625 C-10.875 49.0625 -10.875 49.0625 -9.875 47.0625 C-10.535 46.7325 -11.195 46.4025 -11.875 46.0625 C-10.885 45.4025 -9.895 44.7425 -8.875 44.0625 C-9.865 38.6175 -9.865 38.6175 -10.875 33.0625 C-11.865 32.7325 -12.855 32.4025 -13.875 32.0625 C-13.5625 30.125 -13.5625 30.125 -12.875 28.0625 C-11.885 27.7325 -10.895 27.4025 -9.875 27.0625 C-10.04 25.94875 -10.205 24.835 -10.375 23.6875 C-11.9375 11.1875 -11.9375 11.1875 -9.875 7.0625 C-12.515 6.7325 -15.155 6.4025 -17.875 6.0625 C-17.875 5.0725 -17.875 4.0825 -17.875 3.0625 C-16.555 3.0625 -15.235 3.0625 -13.875 3.0625 C-13.875 2.4025 -13.875 1.7425 -13.875 1.0625 C-9.21962644 0.14157719 -4.72814567 -0.05955997 0 0 Z " fill="#131314" transform="translate(101.875,48.9375)"/>
<path d="M0 0 C19.8 0 39.6 0 60 0 C60 0.66 60 1.32 60 2 C57.36 2 54.72 2 52 2 C52.66 5.63 53.32 9.26 54 13 C52.02 13 50.04 13 48 13 C48 12.01 48 11.02 48 10 C46.68 10 45.36 10 44 10 C44 9.34 44 8.68 44 8 C45.98 7.67 47.96 7.34 50 7 C50 5.35 50 3.7 50 2 C43.4 2 36.8 2 30 2 C30 2.99 30 3.98 30 5 C29.34 5 28.68 5 28 5 C28 5.99 28 6.98 28 8 C26.68 8 25.36 8 24 8 C24 8.99 24 9.98 24 11 C25.32 11.66 26.64 12.32 28 13 C27.67 13.99 27.34 14.98 27 16 C27.66 16.33 28.32 16.66 29 17 C27.02 17 25.04 17 23 17 C23 17.66 23 18.32 23 19 C20.23547967 20.38226016 17.9538637 20.09525387 14.875 20.0625 C13.77929688 20.05347656 12.68359375 20.04445313 11.5546875 20.03515625 C10.71164063 20.02355469 9.86859375 20.01195313 9 20 C9 19.67 9 19.34 9 19 C9.969375 18.87625 10.93875 18.7525 11.9375 18.625 C12.948125 18.41875 13.95875 18.2125 15 18 C15.33 17.34 15.66 16.68 16 16 C16.66 16 17.32 16 18 16 C18 14.68 18 13.36 18 12 C17.01 11.67 16.02 11.34 15 11 C15.33 8.36 15.66 5.72 16 3 C17.32 3 18.64 3 20 3 C20 2.34 20 1.68 20 1 C13.4 1 6.8 1 0 1 C0 0.67 0 0.34 0 0 Z " fill="#EDF0F4" transform="translate(158,48)"/>
<path d="M0 0 C0 0.66 0 1.32 0 2 C1.32 2 2.64 2 4 2 C4 2.66 4 3.32 4 4 C3.34 4 2.68 4 2 4 C2 4.99 2 5.98 2 7 C1.01 7 0.02 7 -1 7 C-1 7.66 -1 8.32 -1 9 C0.32 9.33 1.64 9.66 3 10 C3 11.65 3 13.3 3 15 C4.65 15 6.3 15 8 15 C8 15.66 8 16.32 8 17 C6.35 17 4.7 17 3 17 C3 18.98 3 20.96 3 23 C1.68 23 0.36 23 -1 23 C-1 23.99 -1 24.98 -1 26 C-0.01 26.33 0.98 26.66 2 27 C0.35 27.33 -1.3 27.66 -3 28 C-3 28.66 -3 29.32 -3 30 C-0.36 30 2.28 30 5 30 C5 30.66 5 31.32 5 32 C0.71 32 -3.58 32 -8 32 C-7.34 30.35 -6.68 28.7 -6 27 C-6.66 26.67 -7.32 26.34 -8 26 C-8 22.04 -8 18.08 -8 14 C-9.32 13.34 -10.64 12.68 -12 12 C-11.34 11.67 -10.68 11.34 -10 11 C-10 10.01 -10 9.02 -10 8 C-9.01 7.67 -8.02 7.34 -7 7 C-6.67 6.01 -6.34 5.02 -6 4 C-6.66 4 -7.32 4 -8 4 C-7.67 3.01 -7.34 2.02 -7 1 C-4.53721199 -0.231394 -2.7204945 -0.07159196 0 0 Z " fill="#6E7073" transform="translate(151,69)"/>
<path d="M0 0 C4.29 0 8.58 0 13 0 C13 1.32 13 2.64 13 4 C10.36 4 7.72 4 5 4 C5 5.65 5 7.3 5 9 C5.66 9 6.32 9 7 9 C7 10.32 7 11.64 7 13 C6.01 13 5.02 13 4 13 C4.33 14.32 4.66 15.64 5 17 C6.65 17.33 8.3 17.66 10 18 C10 18.33 10 18.66 10 19 C7.69 19 5.38 19 3 19 C3 17.35 3 15.7 3 14 C-1.62 14 -6.24 14 -11 14 C-11 13.34 -11 12.68 -11 12 C-11.99 11.67 -12.98 11.34 -14 11 C-13.38125 10.79375 -12.7625 10.5875 -12.125 10.375 C-9.15346355 8.45224112 -8.86975341 6.33405473 -8 3 C-5.36 3 -2.72 3 0 3 C0 2.01 0 1.02 0 0 Z " fill="#5A5C5F" transform="translate(183,87)"/>
<path d="M0 0 C2 2 2 2 2 6 C2.66 6 3.32 6 4 6 C4 7.98 4 9.96 4 12 C-1.41735797 12.93402724 -4.80451575 13.20808081 -10 11 C-10.36010591 3.67784643 -10.36010591 3.67784643 -8.9375 1 C-5.91000701 -0.56257703 -3.33615038 -0.3032864 0 0 Z " fill="#6D6F71" transform="translate(102,129)"/>
<path d="M0 0 C3.375 0.25 3.375 0.25 7 1 C8.3125 3 8.3125 3 9 5 C9.66 5.33 10.32 5.66 11 6 C11 4.35 11 2.7 11 1 C12.65 0.67 14.3 0.34 16 0 C16 3.96 16 7.92 16 12 C10 12 10 12 7.125 9.5 C6.42375 8.675 5.7225 7.85 5 7 C4.67 8.65 4.34 10.3 4 12 C2.68 12 1.36 12 0 12 C0 8.04 0 4.08 0 0 Z " fill="#5D5E60" transform="translate(154,129)"/>
<path d="M0 0 C19.8 0 39.6 0 60 0 C60 0.66 60 1.32 60 2 C57.36 2 54.72 2 52 2 C52.66 5.63 53.32 9.26 54 13 C52.02 13 50.04 13 48 13 C48 12.01 48 11.02 48 10 C46.68 10 45.36 10 44 10 C44 9.34 44 8.68 44 8 C45.98 7.67 47.96 7.34 50 7 C50 5.35 50 3.7 50 2 C43.4 2 36.8 2 30 2 C29.67 2.99 29.34 3.98 29 5 C29 4.01 29 3.02 29 2 C19.43 1.67 9.86 1.34 0 1 C0 0.67 0 0.34 0 0 Z " fill="#C4C6C8" transform="translate(158,48)"/>
<path d="M0 0 C1.32 0 2.64 0 4 0 C4 0.99 4 1.98 4 3 C5.65 3 7.3 3 9 3 C8.67 3.99 8.34 4.98 8 6 C9.65 6 11.3 6 13 6 C12.67 7.65 12.34 9.3 12 11 C11.34 11 10.68 11 10 11 C10 11.66 10 12.32 10 13 C7.03 13 4.06 13 1 13 C0.83147753 11.39602723 0.66525114 9.7918131 0.5 8.1875 C0.4071875 7.29417969 0.314375 6.40085937 0.21875 5.48046875 C0 3 0 3 0 0 Z " fill="#484A4C" transform="translate(143,53)"/>
<path d="M0 0 C1.32 0.33 2.64 0.66 4 1 C4 4.63 4 8.26 4 12 C2.68 12 1.36 12 0 12 C0 10.68 0 9.36 0 8 C-2.31 8.33 -4.62 8.66 -7 9 C-7 9.99 -7 10.98 -7 12 C-7.99 12 -8.98 12 -10 12 C-10 8.37 -10 4.74 -10 1 C-9.01 1 -8.02 1 -7 1 C-7 1.99 -7 2.98 -7 4 C-4.69 4 -2.38 4 0 4 C0 2.68 0 1.36 0 0 Z " fill="#5F6063" transform="translate(205,129)"/>
<path d="M0 0 C4.26167447 0.47351939 6.15020808 3.00021903 9 6 C9.66 6.33 10.32 6.66 11 7 C11 5.02 11 3.04 11 1 C11.66 1 12.32 1 13 1 C13 4.63 13 8.26 13 12 C8.63431305 11.12686261 6.57452735 10.34897511 3 8 C3 9.32 3 10.64 3 12 C1.68 12 0.36 12 -1 12 C-1.02698189 10.37509046 -1.04638757 8.75005367 -1.0625 7.125 C-1.07410156 6.22007812 -1.08570313 5.31515625 -1.09765625 4.3828125 C-1 2 -1 2 0 0 Z " fill="#505153" transform="translate(61,129)"/>
<path d="M0 0 C1.32 0.33 2.64 0.66 4 1 C4.33 2.65 4.66 4.3 5 6 C5.66 6 6.32 6 7 6 C7.33 7.98 7.66 9.96 8 12 C3.71 12 -0.58 12 -5 12 C-4.67 9.69 -4.34 7.38 -4 5 C-3.34 5 -2.68 5 -2 5 C-1.34 3.35 -0.68 1.7 0 0 Z " fill="#1C1C1D" transform="translate(139,129)"/>
<path d="M0 0 C0.99 0 1.98 0 3 0 C3 1.32 3 2.64 3 4 C5.93443402 3.73343428 5.93443402 3.73343428 9 3 C9.66 2.01 10.32 1.02 11 0 C11.66 0 12.32 0 13 0 C13 3.63 13 7.26 13 11 C12.01 11 11.02 11 10 11 C9.67 10.01 9.34 9.02 9 8 C6.03 7.505 6.03 7.505 3 7 C3 8.32 3 9.64 3 11 C1.68 11 0.36 11 -1 11 C-1.02688151 9.35425434 -1.04634123 7.70838587 -1.0625 6.0625 C-1.07410156 5.14597656 -1.08570312 4.22945312 -1.09765625 3.28515625 C-1 1 -1 1 0 0 Z " fill="#333335" transform="translate(113,130)"/>
<path d="M0 0 C2.87667975 0.03098757 5.43522999 0.20757666 8.1875 1.125 C8.1875 1.785 8.1875 2.445 8.1875 3.125 C6.5375 3.125 4.8875 3.125 3.1875 3.125 C3.1875 3.785 3.1875 4.445 3.1875 5.125 C5.4975 5.455 7.8075 5.785 10.1875 6.125 C10.1875 6.785 10.1875 7.445 10.1875 8.125 C4.9075 8.125 -0.3725 8.125 -5.8125 8.125 C-4.67367647 0.15323529 -4.67367647 0.15323529 0 0 Z " fill="#C3C8CD" transform="translate(178.8125,90.875)"/>
<path d="M0 0 C2.31 0.33 4.62 0.66 7 1 C7 1.66 7 2.32 7 3 C6.01 3 5.02 3 4 3 C4 3.99 4 4.98 4 6 C4.99 6.33 5.98 6.66 7 7 C5.35 7.33 3.7 7.66 2 8 C2 8.66 2 9.32 2 10 C4.64 10 7.28 10 10 10 C10 10.66 10 11.32 10 12 C5.71 12 1.42 12 -3 12 C-2.34 10.35 -1.68 8.7 -1 7 C-1.66 6.67 -2.32 6.34 -3 6 C-3 5.34 -3 4.68 -3 4 C-2.34 3.67 -1.68 3.34 -1 3 C-0.67 2.01 -0.34 1.02 0 0 Z " fill="#A2A5AA" transform="translate(146,89)"/>
<path d="M0 0 C0.598125 0.226875 1.19625 0.45375 1.8125 0.6875 C1.1525 0.6875 0.4925 0.6875 -0.1875 0.6875 C-0.1875 2.3375 -0.1875 3.9875 -0.1875 5.6875 C1.1325 6.0175 2.4525 6.3475 3.8125 6.6875 C3.8125 8.9975 3.8125 11.3075 3.8125 13.6875 C1.1725 13.6875 -1.4675 13.6875 -4.1875 13.6875 C-4.43665939 11.91936888 -4.66116632 10.14775018 -4.875 8.375 C-5.00261719 7.38886719 -5.13023437 6.40273437 -5.26171875 5.38671875 C-5.1875 2.6875 -5.1875 2.6875 -3.84375 0.8125 C-2.1875 -0.3125 -2.1875 -0.3125 0 0 Z " fill="#B3B6BB" transform="translate(149.1875,73.3125)"/>
<path d="M0 0 C0.99 0 1.98 0 3 0 C3.33 1.65 3.66 3.3 4 5 C5.65 5.33 7.3 5.66 9 6 C9.33 4.35 9.66 2.7 10 1 C10.99 1 11.98 1 13 1 C12.49745366 5.32189851 11.8047708 8.59420689 9 12 C6.3125 12.3125 6.3125 12.3125 4 12 C3.67 10.35 3.34 8.7 3 7 C2.34 7 1.68 7 1 7 C0.67 4.69 0.34 2.38 0 0 Z " fill="#4F5052" transform="translate(226,129)"/>
<path d="M0 0 C2.89608593 -0.05413245 5.79115195 -0.09373641 8.6875 -0.125 C9.91243164 -0.15013672 9.91243164 -0.15013672 11.16210938 -0.17578125 C15.51604459 -0.21103579 19.10031952 -0.19981976 23 2 C23.33 2.66 23.66 3.32 24 4 C17.73 3.34 11.46 2.68 5 2 C5 2.99 5 3.98 5 5 C4.01 5.33 3.02 5.66 2 6 C1.67 6.66 1.34 7.32 1 8 C1.66 8 2.32 8 3 8 C3 8.66 3 9.32 3 10 C2.01 10 1.02 10 0 10 C0.33 11.65 0.66 13.3 1 15 C-1 13 -1 13 -1.1953125 10.8359375 C-1.17210938 10.02382813 -1.14890625 9.21171875 -1.125 8.375 C-1.10695313 7.55773438 -1.08890625 6.74046875 -1.0703125 5.8984375 C-1.04710938 5.27195312 -1.02390625 4.64546875 -1 4 C-0.01 3.67 0.98 3.34 2 3 C1.34 2.67 0.68 2.34 0 2 C0 1.34 0 0.68 0 0 Z " fill="#303132" transform="translate(125,49)"/>
<path d="M0 0 C4.29 0 8.58 0 13 0 C11.68 0.33 10.36 0.66 9 1 C9 1.99 9 2.98 9 4 C6.36 4 3.72 4 1 4 C0.71125 5.0725 0.4225 6.145 0.125 7.25 C-0.72820109 10.09400364 -1.5636503 12.43508983 -3 15 C-3.99 14.67 -4.98 14.34 -6 14 C-6 13.01 -6 12.02 -6 11 C-5.34 10.67 -4.68 10.34 -4 10 C-3.34786708 7.97536745 -3.34786708 7.97536745 -3 6 C-2.34 6 -1.68 6 -1 6 C-1 5.01 -1 4.02 -1 3 C-2.65 3 -4.3 3 -6 3 C-6 2.67 -6 2.34 -6 2 C-4.02 2 -2.04 2 0 2 C0 1.34 0 0.68 0 0 Z " fill="#28292A" transform="translate(174,86)"/>
<path d="M0 0 C1.65 0 3.3 0 5 0 C5 0.99 5 1.98 5 3 C6.65 3 8.3 3 10 3 C10.33 2.34 10.66 1.68 11 1 C11.33 1.66 11.66 2.32 12 3 C11.67 3.66 11.34 4.32 11 5 C11.66 5.33 12.32 5.66 13 6 C11.02 6 9.04 6 7 6 C7 6.66 7 7.32 7 8 C4.23547967 9.38226016 1.9538637 9.09525387 -1.125 9.0625 C-2.22070312 9.05347656 -3.31640625 9.04445313 -4.4453125 9.03515625 C-5.70988281 9.01775391 -5.70988281 9.01775391 -7 9 C-7 8.67 -7 8.34 -7 8 C-6.030625 7.87625 -5.06125 7.7525 -4.0625 7.625 C-3.051875 7.41875 -2.04125 7.2125 -1 7 C-0.67 6.34 -0.34 5.68 0 5 C0.66 5 1.32 5 2 5 C2 3.68 2 2.36 2 1 C1.34 0.67 0.68 0.34 0 0 Z " fill="#A6A9AE" transform="translate(174,59)"/>
<path d="M0 0 C0.66 0 1.32 0 2 0 C2.33 0.99 2.66 1.98 3 3 C2.67 3.33 2.34 3.66 2 4 C2.66 4.66 3.32 5.32 4 6 C4.99 7.485 4.99 7.485 6 9 C5 11.5 5 11.5 3 14 C0.20625708 14.46837899 -2.14221036 14.23424505 -5 14 C-5 13.34 -5 12.68 -5 12 C-3.68 11.67 -2.36 11.34 -1 11 C-1.34786708 9.02463255 -1.34786708 9.02463255 -2 7 C-2.66 6.67 -3.32 6.34 -4 6 C-4 5.01 -4 4.02 -4 3 C-2.68 3 -1.36 3 0 3 C0 2.01 0 1.02 0 0 Z " fill="#57585A" transform="translate(186,53)"/>
<path d="M0 0 C6.6 0 13.2 0 20 0 C20 0.66 20 1.32 20 2 C18.68 2 17.36 2 16 2 C16.185625 2.763125 16.37125 3.52625 16.5625 4.3125 C17 7 17 7 16 10 C16.66 10.33 17.32 10.66 18 11 C18 12.32 18 13.64 18 15 C17.34 15 16.68 15 16 15 C15.67 13.68 15.34 12.36 15 11 C13.68 11 12.36 11 11 11 C10.67 9.68 10.34 8.36 10 7 C11.65 7 13.3 7 15 7 C14.67 5.02 14.34 3.04 14 1 C9.38 1 4.76 1 0 1 C0 0.67 0 0.34 0 0 Z " fill="#6D6E71" transform="translate(158,49)"/>
<path d="M0 0 C0 0.66 0 1.32 0 2 C1.32 2 2.64 2 4 2 C4 2.66 4 3.32 4 4 C3.34 4 2.68 4 2 4 C2 4.99 2 5.98 2 7 C1.01 7 0.02 7 -1 7 C-1 7.66 -1 8.32 -1 9 C0.32 9.33 1.64 9.66 3 10 C3 11.65 3 13.3 3 15 C2.34 15 1.68 15 1 15 C1 13.68 1 12.36 1 11 C0.01 10.67 -0.98 10.34 -2 10 C-2 8.35 -2 6.7 -2 5 C-2.66 4.67 -3.32 4.34 -4 4 C-4.33 4.99 -4.66 5.98 -5 7 C-5.33 6.01 -5.66 5.02 -6 4 C-6.66 4 -7.32 4 -8 4 C-7.67 3.01 -7.34 2.02 -7 1 C-4.53721199 -0.231394 -2.7204945 -0.07159196 0 0 Z " fill="#3C3D3E" transform="translate(151,69)"/>
<path d="M0 0 C3.96 0 7.92 0 12 0 C12 0.66 12 1.32 12 2 C11.01 2.66 10.02 3.32 9 4 C8.26393501 7.56769552 8.26393501 7.56769552 8 11 C6.68 11 5.36 11 4 11 C4 8.03 4 5.06 4 2 C2.68 2 1.36 2 0 2 C0 1.34 0 0.68 0 0 Z " fill="#363739" transform="translate(176,130)"/>
<path d="M0 0 C1.32 0 2.64 0 4 0 C4.66 1.98 5.32 3.96 6 6 C6.99 6 7.98 6 9 6 C9 7.98 9 9.96 9 12 C12.3 12 15.6 12 19 12 C19 13.65 19 15.3 19 17 C17.68 16.67 16.36 16.34 15 16 C15.66 16 16.32 16 17 16 C17 15.34 17 14.68 17 14 C14.03 13.67 11.06 13.34 8 13 C8 11.02 8 9.04 8 7 C6.68 7 5.36 7 4 7 C4 6.34 4 5.68 4 5 C2.68 5.33 1.36 5.66 0 6 C0 4.02 0 2.04 0 0 Z " fill="#606264" transform="translate(112,88)"/>
<path d="M0 0 C0 0.66 0 1.32 0 2 C1.32 2 2.64 2 4 2 C4 3.98 4 5.96 4 8 C3.67 7.34 3.34 6.68 3 6 C1.68 6 0.36 6 -1 6 C-1.061875 6.94875 -1.12375 7.8975 -1.1875 8.875 C-1.455625 9.90625 -1.72375 10.9375 -2 12 C-4.5625 13.375 -4.5625 13.375 -7 14 C-7 13.34 -7 12.68 -7 12 C-6.01 12 -5.02 12 -4 12 C-3.84850702 8.37114676 -3.84850702 8.37114676 -5 5 C-4.6875 2.9375 -4.6875 2.9375 -4 1 C-2 0 -2 0 0 0 Z " fill="#D1D5D9" transform="translate(116,93)"/>
<path d="M0 0 C4.29 0 8.58 0 13 0 C13 0.33 13 0.66 13 1 C10.36 1 7.72 1 5 1 C5.66 4.63 6.32 8.26 7 12 C5.02 12 3.04 12 1 12 C1 11.01 1 10.02 1 9 C-0.32 9 -1.64 9 -3 9 C-3 8.34 -3 7.68 -3 7 C-1.02 6.67 0.96 6.34 3 6 C3 4.35 3 2.7 3 1 C2.01 0.67 1.02 0.34 0 0 Z " fill="#8F9195" transform="translate(205,49)"/>
<path d="M0 0 C0 0.99 0 1.98 0 3 C2.64 3 5.28 3 8 3 C7.01 4.485 7.01 4.485 6 6 C3.03125 6.36328125 3.03125 6.36328125 -0.5 6.3125 C-2.24796875 6.30669922 -2.24796875 6.30669922 -4.03125 6.30078125 C-7 6 -7 6 -9 4 C-9 3.01 -9 2.02 -9 1 C-4.545 0.505 -4.545 0.505 0 0 Z " fill="#2F3031" transform="translate(173,64)"/>
<path d="M0 0 C0.99 0 1.98 0 3 0 C3 1.32 3 2.64 3 4 C5.97 4 8.94 4 12 4 C12 4.66 12 5.32 12 6 C9.36 6.33 6.72 6.66 4 7 C3.67 8.32 3.34 9.64 3 11 C2.01 11 1.02 11 0 11 C0 7.37 0 3.74 0 0 Z " fill="#2F3031" transform="translate(195,130)"/>
<path d="M0 0 C-0.61875 0.0825 -1.2375 0.165 -1.875 0.25 C-4.10540926 0.82212188 -4.10540926 0.82212188 -5.3125 2.6875 C-6.21465796 5.72203131 -5.69345348 7.94880471 -5 11 C-6.32 11 -7.64 11 -9 11 C-9 12.32 -9 13.64 -9 15 C-9.66 15 -10.32 15 -11 15 C-11 13.68 -11 12.36 -11 11 C-11.66 10.67 -12.32 10.34 -13 10 C-12 9 -12 9 -9.4375 8.9375 C-8.633125 8.958125 -7.82875 8.97875 -7 9 C-7.33 8.4225 -7.66 7.845 -8 7.25 C-9 5 -9 5 -9 1 C-5.92677456 0.08941469 -3.19902639 -0.08886184 0 0 Z " fill="#5E5F62" transform="translate(217,90)"/>
<path d="M0 0 C0.99 0.33 1.98 0.66 3 1 C3 8 3 15 3 22 C2.01 22 1.02 22 0 22 C0 23.65 0 25.3 0 27 C-0.99 26.67 -1.98 26.34 -3 26 C-2.34 24.35 -1.68 22.7 -1 21 C-0.34 21 0.32 21 1 21 C0.67 14.07 0.34 7.14 0 0 Z " fill="#B8BBC0" transform="translate(89,55)"/>
<path d="M0 0 C0.33 0.99 0.66 1.98 1 3 C0.34 3 -0.32 3 -1 3 C-1 3.66 -1 4.32 -1 5 C-0.34 5 0.32 5 1 5 C1 6.65 1 8.3 1 10 C2.98 10 4.96 10 7 10 C7 10.99 7 11.98 7 13 C7.99 13.66 8.98 14.32 10 15 C7.03 15 4.06 15 1 15 C0.67 12.03 0.34 9.06 0 6 C-0.66 6 -1.32 6 -2 6 C-2 4.68 -2 3.36 -2 2 C-1.34 2 -0.68 2 0 2 C0 1.34 0 0.68 0 0 Z " fill="#656669" transform="translate(207,73)"/>
<path d="M0 0 C3.68754757 0.49831724 5.60490662 1.10067643 8 4 C8.66 2.68 9.32 1.36 10 0 C10.33 2.64 10.66 5.28 11 8 C10.34 8 9.68 8 9 8 C9 8.99 9 9.98 9 11 C7.68 11 6.36 11 5 11 C5.33 9.02 5.66 7.04 6 5 C5.38125 4.731875 4.7625 4.46375 4.125 4.1875 C2 3 2 3 0 0 Z " fill="#AAADB2" transform="translate(114,56)"/>
<path d="M0 0 C1.03253906 0.00676758 1.03253906 0.00676758 2.0859375 0.01367188 C3.76566335 0.02533664 5.44534375 0.04326729 7.125 0.0625 C5.125 2.0625 5.125 2.0625 2.48046875 2.22265625 C0.91232422 2.17431641 0.91232422 2.17431641 -0.6875 2.125 C-4.60839559 2.01297441 -8.05264459 2.1510696 -11.875 3.0625 C-11.545 4.3825 -11.215 5.7025 -10.875 7.0625 C-13.185 6.7325 -15.495 6.4025 -17.875 6.0625 C-17.875 5.0725 -17.875 4.0825 -17.875 3.0625 C-16.555 3.0625 -15.235 3.0625 -13.875 3.0625 C-13.875 2.4025 -13.875 1.7425 -13.875 1.0625 C-9.21962644 0.14157719 -4.72814567 -0.05955997 0 0 Z " fill="#48494B" transform="translate(101.875,48.9375)"/>
<path d="M0 0 C2.77141717 -0.08089542 5.54047819 -0.14044062 8.3125 -0.1875 C9.09818359 -0.21263672 9.88386719 -0.23777344 10.69335938 -0.26367188 C11.45068359 -0.27333984 12.20800781 -0.28300781 12.98828125 -0.29296875 C14.03302612 -0.31653442 14.03302612 -0.31653442 15.09887695 -0.34057617 C17.59889677 0.1072892 18.47473958 1.00461091 20 3 C20.1875 5.6875 20.1875 5.6875 20 8 C18.02 7.34 16.04 6.68 14 6 C14.33 4.68 14.66 3.36 15 2 C10.05 2 5.1 2 0 2 C0 1.34 0 0.68 0 0 Z " fill="#AFB1B3" transform="translate(93,48)"/>
<path d="M0 0 C2.0625 0.1875 2.0625 0.1875 4 1 C4.33 1.99 4.66 2.98 5 4 C10.61 4.33 16.22 4.66 22 5 C22 5.33 22 5.66 22 6 C18.93654856 6.10822792 15.8769399 6.18741479 12.8125 6.25 C11.94818359 6.28351563 11.08386719 6.31703125 10.19335938 6.3515625 C5.83379843 6.41837569 3.63670591 6.41222114 -0.11328125 3.984375 C-0.73589844 3.32953125 -1.35851562 2.6746875 -2 2 C-1.34 1.34 -0.68 0.68 0 0 Z " fill="#515254" transform="translate(152,101)"/>
<path d="M0 0 C0.66 0.33 1.32 0.66 2 1 C1.67 2.32 1.34 3.64 1 5 C-3.41062136 6.0257259 -5.92630576 6.03684712 -10 4 C-10 3.34 -10 2.68 -10 2 C-7.03 2.33 -4.06 2.66 -1 3 C-0.67 2.01 -0.34 1.02 0 0 Z " fill="#2E2F30" transform="translate(103,136)"/>
<path d="M0 0 C0.66 0 1.32 0 2 0 C2.33 1.32 2.66 2.64 3 4 C5.31 4.33 7.62 4.66 10 5 C10.33 3.68 10.66 2.36 11 1 C11.33 2.98 11.66 4.96 12 7 C7.71 7 3.42 7 -1 7 C-0.67 4.69 -0.34 2.38 0 0 Z " fill="#525355" transform="translate(135,134)"/>
<path d="M0 0 C0.99 0 1.98 0 3 0 C3 3.96 3 7.92 3 12 C2.01 12 1.02 12 0 12 C0 8.04 0 4.08 0 0 Z " fill="#4C4D4F" transform="translate(82,129)"/>
<path d="M0 0 C1.0625 1.875 1.0625 1.875 2 4 C1.67 4.66 1.34 5.32 1 6 C2.98 6 4.96 6 7 6 C7.33 4.68 7.66 3.36 8 2 C8 2.66 8 3.32 8 4 C10.31 4.33 12.62 4.66 15 5 C15 5.66 15 6.32 15 7 C9.72 7 4.44 7 -1 7 C-0.67 4.69 -0.34 2.38 0 0 Z " fill="#B3B7BC" transform="translate(174,92)"/>
<path d="M0 0 C1.32 0 2.64 0 4 0 C4.36923077 4.55384615 4.36923077 4.55384615 2.5 6.8125 C2.005 7.204375 1.51 7.59625 1 8 C1.66 8 2.32 8 3 8 C3 8.66 3 9.32 3 10 C2.01 10 1.02 10 0 10 C0.33 11.65 0.66 13.3 1 15 C-1 13 -1 13 -1.1953125 10.8359375 C-1.17210938 10.02382813 -1.14890625 9.21171875 -1.125 8.375 C-1.10695313 7.55773438 -1.08890625 6.74046875 -1.0703125 5.8984375 C-1.04710938 5.27195312 -1.02390625 4.64546875 -1 4 C-0.01 3.67 0.98 3.34 2 3 C1.34 2.67 0.68 2.34 0 2 C0 1.34 0 0.68 0 0 Z " fill="#464749" transform="translate(125,49)"/>
<path d="M0 0 C0.99 0 1.98 0 3 0 C2.5309551 4.12759513 2.06048338 7.05286786 -1 10 C-2.32 10 -3.64 10 -5 10 C-5 9.34 -5 8.68 -5 8 C-4.01 8 -3.02 8 -2 8 C-1.7834375 6.576875 -1.7834375 6.576875 -1.5625 5.125 C-1 2 -1 2 0 0 Z " fill="#323334" transform="translate(236,130)"/>
<path d="M0 0 C-1.32 1.32 -2.64 2.64 -4 4 C-2.35 4 -0.7 4 1 4 C1 4.66 1 5.32 1 6 C-1.64 6 -4.28 6 -7 6 C-7.33 4.35 -7.66 2.7 -8 1 C-5.07175348 0.02391783 -3.04386724 -0.08226668 0 0 Z " fill="#2B2B2C" transform="translate(101,130)"/>
<path d="M0 0 C0.33 0.66 0.66 1.32 1 2 C3.97 2 6.94 2 10 2 C10.33 1.34 10.66 0.68 11 0 C11 2.62113708 10.68707555 4.50935112 10 7 C9.34 7 8.68 7 8 7 C8 6.34 8 5.68 8 5 C6.35 5 4.7 5 3 5 C3 4.34 3 3.68 3 3 C2.01 3 1.02 3 0 3 C0 2.01 0 1.02 0 0 Z " fill="#202021" transform="translate(143,64)"/>
<path d="M0 0 C0.33 0 0.66 0 1 0 C1 1.65 1 3.3 1 5 C1.66 5 2.32 5 3 5 C3 5.99 3 6.98 3 8 C2.01 8.495 2.01 8.495 1 9 C1.185625 10.258125 1.37125 11.51625 1.5625 12.8125 C2.00732761 15.82744268 1.99843846 17.00468461 1 20 C-1.43044139 16.35433792 -1.26310692 13.64363257 -1.1875 9.4375 C-1.1865332 8.40979492 -1.1865332 8.40979492 -1.18554688 7.36132812 C-1.14067963 2.28135927 -1.14067963 2.28135927 0 0 Z " fill="#4C4D4F" transform="translate(92,56)"/>
<path d="M0 0 C0.66 0 1.32 0 2 0 C2 3.63 2 7.26 2 11 C0.35 10.67 -1.3 10.34 -3 10 C-3 9.01 -3 8.02 -3 7 C-2.01 7 -1.02 7 0 7 C0 4.69 0 2.38 0 0 Z " fill="#222324" transform="translate(72,130)"/>
<path d="M0 0 C4.95 0 9.9 0 15 0 C14.67 1.32 14.34 2.64 14 4 C13.67 3.01 13.34 2.02 13 1 C11.02 1 9.04 1 7 1 C7 2.32 7 3.64 7 5 C5.68 4.67 4.36 4.34 3 4 C3 3.34 3 2.68 3 2 C2.01 1.34 1.02 0.68 0 0 Z " fill="#C7CBD0" transform="translate(171,101)"/>
<path d="M0 0 C0.79921875 0.01804687 1.5984375 0.03609375 2.421875 0.0546875 C3.02515625 0.07789062 3.6284375 0.10109375 4.25 0.125 C4.25 0.785 4.25 1.445 4.25 2.125 C2.83461283 2.46372513 1.41762037 2.79574624 0 3.125 C-0.78890625 3.310625 -1.5778125 3.49625 -2.390625 3.6875 C-4.75 4.125 -4.75 4.125 -8.75 4.125 C-8.75 3.465 -8.75 2.805 -8.75 2.125 C-5.68753253 0.34090198 -3.52920727 -0.10380021 0 0 Z " fill="#373839" transform="translate(212.75,87.875)"/>
<path d="M0 0 C3.41021743 0.78697325 6.68885166 1.87119943 10 3 C9.67 3.66 9.34 4.32 9 5 C6.03 5 3.06 5 0 5 C0 3.35 0 1.7 0 0 Z " fill="#2E2E30" transform="translate(154,86)"/>
<path d="M0 0 C1.65 0.33 3.3 0.66 5 1 C4.67 2.32 4.34 3.64 4 5 C1.69 5 -0.62 5 -3 5 C-2.67 4.01 -2.34 3.02 -2 2 C-1.34 2 -0.68 2 0 2 C0 1.34 0 0.68 0 0 Z " fill="#B6BBC0" transform="translate(148,60)"/>
<path d="M0 0 C1.32 0 2.64 0 4 0 C4.66 1.65 5.32 3.3 6 5 C3.36 5 0.72 5 -2 5 C-1.125 1.125 -1.125 1.125 0 0 Z " fill="#262628" transform="translate(204,92)"/>
<path d="M0 0 C1.32 0.33 2.64 0.66 4 1 C3.67 1.66 3.34 2.32 3 3 C2.01 2.67 1.02 2.34 0 2 C0 2.66 0 3.32 0 4 C0.99 4 1.98 4 3 4 C3 5.32 3 6.64 3 8 C1.68 8 0.36 8 -1 8 C-1.625 5.6875 -1.625 5.6875 -2 3 C-1.34 2.01 -0.68 1.02 0 0 Z " fill="#626466" transform="translate(139,129)"/>
<path d="M0 0 C0.99 0 1.98 0 3 0 C3 1.32 3 2.64 3 4 C3.99 4 4.98 4 6 4 C6 4.66 6 5.32 6 6 C3.69 6 1.38 6 -1 6 C-1.042721 4.33388095 -1.04063832 2.66617115 -1 1 C-0.67 0.67 -0.34 0.34 0 0 Z " fill="#DBE0E5" transform="translate(147,81)"/>
<path d="M0 0 C2.97 0 5.94 0 9 0 C8.34 1.32 7.68 2.64 7 4 C5.02 4 3.04 4 1 4 C0.67 2.68 0.34 1.36 0 0 Z " fill="#1E1F1F" transform="translate(143,101)"/>
<path d="M0 0 C0 0.66 0 1.32 0 2 C1.32 2 2.64 2 4 2 C4 2.99 4 3.98 4 5 C1.83125748 4.49396008 0.00032373 4.00016187 -2 3 C-2.66 4.32 -3.32 5.64 -4 7 C-5 5 -5 5 -4.6875 2.9375 C-3.74042307 0.26846502 -2.76591243 0 0 0 Z " fill="#B8BBC1" transform="translate(116,93)"/>
<path d="M0 0 C1.65 0 3.3 0 5 0 C5.38218767 1.65614657 5.71395102 3.32457024 6 5 C5 6 5 6 2.4375 6.0625 C1.2309375 6.0315625 1.2309375 6.0315625 0 6 C0.185625 5.38125 0.37125 4.7625 0.5625 4.125 C1.23686176 1.95839822 1.23686176 1.95839822 0 0 Z " fill="#C8CCD1" transform="translate(147,50)"/>
<path d="M0 0 C0.66 0.66 1.32 1.32 2 2 C1.67 2.66 1.34 3.32 1 4 C1.66 4.33 2.32 4.66 3 5 C0.36 5.33 -2.28 5.66 -5 6 C-5.33 5.34 -5.66 4.68 -6 4 C-5.67 3.34 -5.34 2.68 -5 2 C-3.35 2 -1.7 2 0 2 C0 1.34 0 0.68 0 0 Z " fill="#C6C9CE" transform="translate(184,60)"/>
<path d="M0 0 C1.65 0 3.3 0 5 0 C5 0.66 5 1.32 5 2 C6.32 2 7.64 2 9 2 C9.33 2.99 9.66 3.98 10 5 C8.02 5 6.04 5 4 5 C4 4.01 4 3.02 4 2 C2.68 2 1.36 2 0 2 C0 1.34 0 0.68 0 0 Z " fill="#737477" transform="translate(202,56)"/>
<path d="M0 0 C0.99 0 1.98 0 3 0 C2.44271087 3.34373475 1.64826111 6.03312999 0 9 C-0.99 8.67 -1.98 8.34 -3 8 C-3 7.01 -3 6.02 -3 5 C-2.34 4.67 -1.68 4.34 -1 4 C-0.34786708 1.97536745 -0.34786708 1.97536745 0 0 Z " fill="#3B3C3E" transform="translate(171,92)"/>
<path d="M0 0 C2.31 0.33 4.62 0.66 7 1 C7 1.66 7 2.32 7 3 C6.21625 2.938125 5.4325 2.87625 4.625 2.8125 C3.325625 2.9053125 3.325625 2.9053125 2 3 C1.01 4.485 1.01 4.485 0 6 C-0.99 6 -1.98 6 -3 6 C-3 5.34 -3 4.68 -3 4 C-2.34 3.67 -1.68 3.34 -1 3 C-0.67 2.01 -0.34 1.02 0 0 Z " fill="#9C9FA3" transform="translate(146,89)"/>
<path d="M0 0 C0.66 0 1.32 0 2 0 C2.99 3.63 3.98 7.26 5 11 C4.01 11.495 4.01 11.495 3 12 C3 11.01 3 10.02 3 9 C2.01 9 1.02 9 0 9 C0 6.03 0 3.06 0 0 Z " fill="#B4B7BC" transform="translate(89,82)"/>
<path d="M0 0 C6.75 -0.125 6.75 -0.125 9 1 C9 1.99 9 2.98 9 4 C6 3 6 3 4 2 C3.67 2.99 3.34 3.98 3 5 C2.67 4.01 2.34 3.02 2 2 C1.34 2 0.68 2 0 2 C0 1.34 0 0.68 0 0 Z " fill="#6E6F72" transform="translate(143,71)"/>
<path d="M0 0 C0.99 1.485 0.99 1.485 2 3 C5.55672179 4.2188121 5.55672179 4.2188121 9 5 C9 5.66 9 6.32 9 7 C6.36 6.67 3.72 6.34 1 6 C0.67 6.66 0.34 7.32 0 8 C0 5.36 0 2.72 0 0 Z " fill="#A6A8AB" transform="translate(92,132)"/>
<path d="M0 0 C-0.61875 0.04125 -1.2375 0.0825 -1.875 0.125 C-2.57625 0.41375 -3.2775 0.7025 -4 1 C-5.3045656 3.99615946 -5.3045656 3.99615946 -6 7 C-6.99 6.34 -7.98 5.68 -9 5 C-9 3.68 -9 2.36 -9 1 C-5.92677456 0.08941469 -3.19902639 -0.08886184 0 0 Z " fill="#95979B" transform="translate(217,90)"/>
<path d="M0 0 C1.32 0.33 2.64 0.66 4 1 C3.67 1.66 3.34 2.32 3 3 C4.65 3.33 6.3 3.66 8 4 C8 5.32 8 6.64 8 8 C7.34 8 6.68 8 6 8 C5.67 6.68 5.34 5.36 5 4 C3.68 4 2.36 4 1 4 C0.67 2.68 0.34 1.36 0 0 Z " fill="#4D4E51" transform="translate(168,56)"/>
<path d="M0 0 C1.98 0 3.96 0 6 0 C6 1.65 6 3.3 6 5 C4.35 4.67 2.7 4.34 1 4 C0.67 2.68 0.34 1.36 0 0 Z " fill="#5D5F62" transform="translate(202,66)"/>
<path d="M0 0 C1.32 0 2.64 0 4 0 C4 0.99 4 1.98 4 3 C5.65 3 7.3 3 9 3 C9 3.33 9 3.66 9 4 C4.545 4.495 4.545 4.495 0 5 C0 3.35 0 1.7 0 0 Z " fill="#5C5D60" transform="translate(143,53)"/>
<path d="M0 0 C1.32 0.33 2.64 0.66 4 1 C4 1.99 4 2.98 4 4 C3.01 4.495 3.01 4.495 2 5 C1.34444881 7.52733235 1.34444881 7.52733235 1 10 C0.67 10 0.34 10 0 10 C0 6.7 0 3.4 0 0 Z " fill="#1E1F20" transform="translate(156,130)"/>
<path d="M0 0 C0.99 0.33 1.98 0.66 3 1 C2.67 1.99 2.34 2.98 2 4 C1.01 4 0.02 4 -1 4 C-1 5.65 -1 7.3 -1 9 C-1.99 8.67 -2.98 8.34 -4 8 C-3.34 6.35 -2.68 4.7 -2 3 C-1.34 3 -0.68 3 0 3 C0 2.01 0 1.02 0 0 Z " fill="#AFB2B6" transform="translate(90,73)"/>
<path d="M0 0 C1.32 0 2.64 0 4 0 C4 2.66666667 4 5.33333333 4 8 C3.34 7.34 2.68 6.68 2 6 C2 5.01 2 4.02 2 3 C1.34 3 0.68 3 0 3 C0 2.01 0 1.02 0 0 Z " fill="#4A4C4E" transform="translate(108,94)"/>
<path d="M0 0 C0.99 0.33 1.98 0.66 3 1 C3 1.66 3 2.32 3 3 C3.99 3 4.98 3 6 3 C5.67 4.32 5.34 5.64 5 7 C5 6.01 5 5.02 5 4 C3.68 4 2.36 4 1 4 C0.67 4.99 0.34 5.98 0 7 C0 4.69 0 2.38 0 0 Z " fill="#1D1D1E" transform="translate(111,84)"/>
<path d="M0 0 C1.98 0 3.96 0 6 0 C6.33 1.32 6.66 2.64 7 4 C6.34 4 5.68 4 5 4 C5 3.34 5 2.68 5 2 C3.68 2 2.36 2 1 2 C0.67 2.66 0.34 3.32 0 4 C0 2.68 0 1.36 0 0 Z " fill="#CCCED0" transform="translate(116,137)"/>
<path d="M0 0 C1.134375 0.020625 2.26875 0.04125 3.4375 0.0625 C4.0975 1.3825 4.7575 2.7025 5.4375 4.0625 C1.71861761 3.55537967 -1.29704239 2.94641785 -4.5625 1.0625 C-3.5625 0.0625 -3.5625 0.0625 0 0 Z " fill="#4F5052" transform="translate(98.5625,128.9375)"/>
<path d="M0 0 C1.32 0 2.64 0 4 0 C4 1.65 4 3.3 4 5 C2.68 4.67 1.36 4.34 0 4 C0 2.68 0 1.36 0 0 Z " fill="#E8EDF3" transform="translate(177,93)"/>
<path d="M0 0 C-1.75 5.75 -1.75 5.75 -4 8 C-4.33 7.34 -4.66 6.68 -5 6 C-4.67 5.34 -4.34 4.68 -4 4 C-4.66 3.67 -5.32 3.34 -6 3 C-2.25 0 -2.25 0 0 0 Z " fill="#2E2F30" transform="translate(96,92)"/>
<path d="M0 0 C0.66 0 1.32 0 2 0 C2 0.66 2 1.32 2 2 C3.175625 2.185625 3.175625 2.185625 4.375 2.375 C7 3 7 3 9 5 C6.36 4.67 3.72 4.34 1 4 C0.67 2.68 0.34 1.36 0 0 Z " fill="#444547" transform="translate(105,52)"/>
<path d="M0 0 C1.32 0.33 2.64 0.66 4 1 C4 1.66 4 2.32 4 3 C3.34 3 2.68 3 2 3 C2 3.66 2 4.32 2 5 C0.68 4.67 -0.64 4.34 -2 4 C-1.34 3.67 -0.68 3.34 0 3 C0 2.01 0 1.02 0 0 Z " fill="#595B5E" transform="translate(141,77)"/>
<path d="M0 0 C2.64 0.33 5.28 0.66 8 1 C5 3 5 3 2.3125 2.625 C1.549375 2.41875 0.78625 2.2125 0 2 C0 1.34 0 0.68 0 0 Z " fill="#434445" transform="translate(93,138)"/>
<path d="M0 0 C0.66 0 1.32 0 2 0 C2.66 1.65 3.32 3.3 4 5 C3.34 5 2.68 5 2 5 C2.33 5.99 2.66 6.98 3 8 C2.34 8 1.68 8 1 8 C0.34 6.68 -0.32 5.36 -1 4 C-0.34 4 0.32 4 1 4 C0.67 2.68 0.34 1.36 0 0 Z " fill="#636466" transform="translate(159,130)"/>
<path d="M0 0 C0.99 0 1.98 0 3 0 C3.33 0.99 3.66 1.98 4 3 C3.01 3.495 3.01 3.495 2 4 C1.34444881 6.52733235 1.34444881 6.52733235 1 9 C0.67 9 0.34 9 0 9 C0 6.03 0 3.06 0 0 Z " fill="#161617" transform="translate(62,131)"/>
<path d="M0 0 C1.98 0 3.96 0 6 0 C5.2884375 0.6496875 5.2884375 0.6496875 4.5625 1.3125 C2.76313043 3.02309613 2.76313043 3.02309613 2 6 C1.34 5.67 0.68 5.34 0 5 C0 3.35 0 1.7 0 0 Z " fill="#4E5052" transform="translate(152,50)"/>
<path d="M0 0 C0.66 0 1.32 0 2 0 C2.33 2.31 2.66 4.62 3 7 C2.34 6.67 1.68 6.34 1 6 C1 5.34 1 4.68 1 4 C0.01 3.67 -0.98 3.34 -2 3 C-1.34 2.01 -0.68 1.02 0 0 Z " fill="#CED2D7" transform="translate(110,49)"/>
<path d="M0 0 C1.32 0 2.64 0 4 0 C4 1.65 4 3.3 4 5 C2.35 5.33 0.7 5.66 -1 6 C-1 5.34 -1 4.68 -1 4 C-0.01 3.67 0.98 3.34 2 3 C1.34 2.67 0.68 2.34 0 2 C0 1.34 0 0.68 0 0 Z " fill="#5C5D60" transform="translate(125,49)"/>
</svg>
